<svg xmlns="http://www.w3.org/2000/svg" xmlns:xlink="http://www.w3.org/1999/xlink" width="500" zoomAndPan="magnify" viewBox="0 0 375 374.999991" height="500" preserveAspectRatio="xMidYMid meet" version="1.0"><defs><clipPath id="bbed637266"><path d="M 0.03125 0 L 374.972656 0 L 374.972656 304.5 L 0.03125 304.5 Z M 0.03125 0 " clip-rule="nonzero"/></clipPath></defs><rect x="-37.5" width="450" fill="#ffffff" y="-37.499999" height="449.999989" fill-opacity="1"/><rect x="-37.5" width="450" fill="#ffffff" y="-37.499999" height="449.999989" fill-opacity="1"/><path fill="#e16e36" d="M 344.011719 100.75 C 345.90625 102.0625 347.617188 103.457031 349.140625 104.929688 C 349.273438 103.265625 349.269531 101.5625 349.113281 99.816406 C 350.273438 99.796875 351.324219 98.859375 351.546875 98.226562 C 351.890625 97.242188 350.414062 96.429688 348.363281 95.3125 C 348.03125 93.933594 347.597656 92.527344 347.050781 91.105469 C 348.121094 90.011719 351.214844 88.523438 344.976562 86.609375 C 344.886719 86.429688 344.796875 86.253906 344.699219 86.074219 C 344.285156 85.335938 343.71875 84.28125 343.34375 83.53125 C 344.953125 82.558594 347.359375 80.003906 341.390625 78.894531 C 341.335938 78.886719 341.171875 78.53125 341.121094 78.511719 C 340.515625 77 339.964844 75.472656 339.464844 73.9375 C 340.785156 74.074219 341.867188 73.6875 342.058594 72.910156 C 342.304688 71.9375 341.074219 70.738281 339.320312 70.230469 C 338.96875 70.128906 338.625 70.070312 338.292969 70.035156 C 337.945312 68.769531 337.632812 67.496094 337.347656 66.222656 C 338.582031 66.300781 339.566406 65.910156 339.753906 65.171875 C 339.996094 64.199219 338.765625 63 337.007812 62.492188 C 336.863281 62.449219 336.71875 62.421875 336.570312 62.390625 C 336.316406 60.972656 336.09375 59.558594 335.902344 58.152344 C 336.828125 58.128906 337.558594 57.746094 337.722656 57.09375 C 337.953125 56.179688 336.976562 55.101562 335.542969 54.6875 C 335.523438 54.679688 335.503906 54.679688 335.488281 54.671875 C 335.371094 53.578125 335.277344 52.484375 335.195312 51.402344 C 336.191406 51.519531 337.039062 51.175781 337.207031 50.515625 C 337.402344 49.730469 336.5625 48.804688 335.332031 48.445312 C 335.222656 48.414062 335.117188 48.394531 335.011719 48.375 C 334.949219 47.101562 334.910156 45.839844 334.886719 44.597656 C 335.730469 44.664062 336.429688 44.359375 336.570312 43.792969 C 336.746094 43.09375 335.996094 42.265625 334.894531 41.945312 C 334.886719 41.941406 334.878906 41.941406 334.867188 41.941406 C 334.871094 40.667969 334.894531 39.417969 334.933594 38.191406 C 335.792969 38.3125 336.535156 38.019531 336.675781 37.453125 C 336.839844 36.792969 336.136719 36.015625 335.101562 35.714844 C 335.078125 35.707031 335.058594 35.707031 335.035156 35.699219 C 335.097656 34.421875 335.171875 33.179688 335.265625 31.976562 C 335.996094 32.054688 336.609375 31.800781 336.734375 31.316406 C 336.871094 30.757812 336.300781 30.105469 335.445312 29.820312 C 335.554688 28.609375 335.675781 27.449219 335.804688 26.335938 C 336.453125 26.398438 336.996094 26.167969 337.105469 25.734375 C 337.226562 25.246094 336.757812 24.683594 336.039062 24.410156 C 336.960938 17.242188 338.089844 12.71875 338.089844 12.71875 C 330.972656 29.859375 328.691406 52.160156 330.980469 70.363281 C 342.492188 88.914062 343.859375 99.925781 344.011719 100.75 " fill-opacity="1" fill-rule="nonzero"/><g clip-path="url(#bbed637266)"><path fill="#e16e36" d="M 368.902344 141.558594 C 362.050781 134.054688 356.613281 119.609375 356.613281 119.609375 C 355.550781 113.160156 349.980469 107.9375 341.972656 102.628906 C 340.414062 93.488281 336.632812 82.015625 328.027344 70.683594 C 309.09375 45.75 313.535156 0 313.535156 0 C 311.933594 5.351562 310.828125 11.09375 310.167969 16.980469 C 308.898438 16.722656 307.859375 16.867188 307.742188 17.355469 C 307.617188 17.878906 308.597656 18.601562 309.960938 19.035156 C 309.84375 20.265625 309.742188 21.496094 309.667969 22.734375 C 308.566406 22.605469 307.722656 22.789062 307.617188 23.246094 C 307.496094 23.753906 308.328125 24.433594 309.554688 24.914062 C 309.5 26.257812 309.460938 27.601562 309.445312 28.941406 C 308.351562 28.867188 307.546875 29.078125 307.433594 29.554688 C 307.304688 30.101562 308.152344 30.832031 309.441406 31.371094 C 309.457031 32.804688 309.492188 34.238281 309.554688 35.664062 C 308.605469 35.660156 307.933594 35.890625 307.832031 36.328125 C 307.699219 36.875 308.472656 37.589844 309.6875 38.144531 C 309.777344 39.621094 309.898438 41.085938 310.046875 42.539062 C 309.234375 42.601562 308.679688 42.851562 308.582031 43.269531 C 308.449219 43.828125 309.164062 44.546875 310.335938 45.144531 C 310.507812 46.5625 310.703125 47.96875 310.925781 49.351562 C 310.078125 49.449219 309.503906 49.726562 309.394531 50.183594 C 309.238281 50.839844 310.082031 51.679688 311.453125 52.375 C 311.796875 54.167969 312.175781 55.921875 312.597656 57.632812 C 311.523438 57.6875 310.800781 57.964844 310.683594 58.464844 C 310.511719 59.1875 311.667969 60.175781 313.492188 61.007812 C 313.921875 62.492188 314.382812 63.9375 314.878906 65.335938 C 313.941406 65.417969 313.320312 65.691406 313.210938 66.152344 C 313.03125 66.898438 314.273438 67.929688 316.199219 68.773438 C 316.839844 70.316406 317.523438 71.785156 318.25 73.167969 C 317.46875 73.335938 316.964844 73.648438 316.851562 74.101562 C 316.621094 75.078125 318.265625 76.425781 320.816406 77.546875 C 321.644531 78.925781 322.382812 80.285156 323.039062 81.621094 C 321.734375 81.703125 320.875 82.042969 320.734375 82.640625 C 320.5 83.621094 322.285156 85.015625 325.042969 86.1875 C 325.496094 87.375 325.882812 88.53125 326.222656 89.65625 C 323.890625 89.402344 322.246094 89.65625 322.035156 90.445312 C 321.765625 91.476562 324.039062 93.101562 327.414062 94.425781 C 327.597656 95.375 327.75 96.289062 327.867188 97.15625 C 324.007812 96.976562 322.019531 98.261719 322.019531 98.261719 C 313.417969 95.917969 305.339844 79.457031 305.339844 79.457031 C 305.339844 79.457031 302.722656 95.777344 307.929688 103.570312 C 311.53125 108.964844 317.6875 107.792969 317.6875 107.792969 C 314.085938 109.988281 310.722656 113.453125 307.796875 117.183594 C 304.105469 121.894531 290.097656 143.066406 282.871094 156.582031 C 282.871094 156.582031 282.871094 156.585938 282.871094 156.585938 C 282.425781 157.417969 282.003906 158.222656 281.613281 158.988281 C 281.304688 159.425781 281.042969 159.84375 280.960938 160.300781 C 277.011719 163.285156 273.660156 167.515625 267.300781 168.039062 C 261.15625 168.546875 251.65625 173.113281 249.191406 177.003906 C 247.332031 179.933594 237.15625 185.386719 228.421875 187.96875 C 218.855469 190.804688 203.496094 209.039062 131.925781 193.667969 C 127.023438 192.613281 125.402344 190.417969 115.074219 191.949219 C 110.453125 192.636719 92.921875 201.867188 88.316406 201.226562 C 81.304688 200.246094 81.15625 205.441406 74.433594 205.820312 C 74.660156 208.113281 78.539062 210.246094 84.125 211.847656 C 88.035156 212.972656 100.488281 201.921875 105.054688 202.3125 C 105.054688 202.3125 105.71875 203.085938 104.835938 204.4375 C 101.546875 209.449219 105.484375 226.484375 105.632812 232.433594 C 99.738281 240.410156 97.484375 240.878906 89.578125 238.359375 C 82.582031 236.796875 76.625 239.480469 72.671875 245.503906 C 68.628906 251.671875 44.625 269.527344 37.28125 269.761719 C 36.46875 269.789062 34.75 266.210938 33.726562 266.96875 C 33.542969 267.101562 33.265625 267.601562 33.339844 268.984375 C 33.371094 269.527344 34.074219 272.332031 27.546875 271.074219 C 21.53125 269.914062 21.503906 273.992188 8.535156 280.523438 C 3.71875 282.949219 20.785156 289.816406 32.382812 282.496094 C 34.714844 281.019531 37.878906 281.167969 39.9375 279.664062 C 78.609375 251.484375 93.898438 253.734375 94.125 253.550781 C 94.566406 253.488281 97.636719 254.027344 102.179688 253.742188 C 99.011719 257.988281 93.425781 260.910156 83.914062 260.957031 C 77.003906 259.027344 70.921875 261.394531 66.683594 267.203125 C 62.339844 273.148438 37.496094 289.71875 30.152344 289.566406 C 29.335938 289.546875 27.796875 285.886719 26.738281 286.585938 C 26.546875 286.710938 26.246094 287.199219 26.253906 288.582031 C 26.257812 289.128906 26.824219 291.960938 20.363281 290.363281 C 14.414062 288.890625 14.1875 292.960938 0.917969 298.800781 C -4.011719 300.972656 12.699219 308.726562 24.636719 302.023438 C 27.039062 300.675781 30.246094 301.070312 32.320312 299.597656 C 71.207031 272.019531 87.382812 278.246094 87.617188 278.074219 C 88.613281 277.984375 134.621094 283.691406 145.25 269.152344 C 149.128906 263.84375 150.648438 261.460938 152.160156 260.605469 C 148.472656 257.164062 144.816406 252.671875 144.816406 252.671875 C 148.441406 256.855469 151.589844 259.0625 154.007812 260.21875 C 155.816406 260.324219 158.476562 261.40625 164.222656 262.15625 C 248.527344 273.171875 267.449219 247.554688 273.632812 243.007812 C 270.167969 238.796875 266.65625 232.414062 266.65625 232.414062 C 270.457031 238.832031 274.140625 241.621094 276.609375 242.839844 C 285.394531 246.050781 293.957031 243.933594 301.8125 244.425781 C 292.679688 251.277344 283.976562 259.230469 283.007812 258.554688 C 279.792969 256.3125 279.917969 254.699219 279.335938 256.785156 C 279.3125 256.871094 279.308594 257.007812 279.328125 257.472656 C 279.714844 267.507812 271.609375 259.492188 266.699219 264.40625 C 259.203125 271.90625 257.515625 273.59375 259.03125 274.542969 C 263.035156 277.074219 275.503906 273.269531 278.605469 270.363281 C 282.054688 267.136719 283.609375 267.734375 285.941406 266.496094 C 301.394531 258.285156 310.214844 251.824219 317.40625 246.558594 C 319.773438 246.675781 320.28125 249.308594 318.417969 250.476562 C 308.609375 255.335938 283.527344 275.539062 281.882812 274.390625 C 278.667969 272.148438 278.785156 271.335938 278.203125 273.425781 C 278.203125 273.425781 278.21875 273.5 278.195312 274.113281 C 277.859375 284.152344 270.476562 276.132812 265.566406 281.046875 C 258.070312 288.550781 256.382812 290.234375 257.902344 291.183594 C 261.902344 293.714844 274.371094 289.90625 277.472656 287.003906 C 280.921875 283.777344 282.480469 284.375 284.808594 283.136719 C 327.859375 260.265625 338.265625 254.996094 340.632812 252.605469 C 342.128906 251.097656 343.398438 250.316406 342.035156 247.632812 C 340.769531 245.128906 337.769531 242.148438 335.675781 239.828125 C 338.972656 237.664062 340.917969 236.820312 341.765625 235.964844 C 343.261719 234.457031 344.527344 233.679688 343.171875 230.992188 C 340.0625 224.851562 327.125 218.957031 322.425781 214.082031 C 328.382812 206.488281 328.960938 200 326.484375 191.488281 C 324.84375 185.859375 322.691406 179.742188 322.382812 173.925781 C 325.039062 162.167969 328.03125 151.347656 330.035156 145.59375 C 327.472656 144.519531 320.015625 137.914062 319.425781 136.675781 C 319.425781 136.675781 328.894531 144.269531 331.753906 144.804688 C 332.207031 144.75 332.949219 144.625 333.941406 144.546875 C 336.910156 144.308594 342.121094 144.46875 348.578125 148.132812 C 351.96875 150.058594 358.007812 152.347656 360.96875 153.4375 C 364.921875 154.886719 373.460938 152.980469 374.667969 150.390625 C 375.777344 148.011719 373.867188 146.992188 368.902344 141.558594 " fill-opacity="1" fill-rule="nonzero"/></g></svg>