<svg xmlns="http://www.w3.org/2000/svg" xmlns:xlink="http://www.w3.org/1999/xlink" width="414" zoomAndPan="magnify" viewBox="0 0 310.5 152.249993" height="203" preserveAspectRatio="xMidYMid meet" version="1.0"><defs><g/><clipPath id="f114e346aa"><path d="M 0.511719 0 L 309.488281 0 L 309.488281 151.503906 L 0.511719 151.503906 Z M 0.511719 0 " clip-rule="nonzero"/></clipPath><clipPath id="fda42b7f8d"><path d="M 97.132812 0.269531 L 212.734375 0.269531 L 212.734375 94.320312 L 97.132812 94.320312 Z M 97.132812 0.269531 " clip-rule="nonzero"/></clipPath></defs><g clip-path="url(#f114e346aa)"><path fill="#ffffff" d="M 0.511719 0 L 309.488281 0 L 309.488281 151.503906 L 0.511719 151.503906 Z M 0.511719 0 " fill-opacity="1" fill-rule="nonzero"/></g><g fill="#000000" fill-opacity="1"><g transform="translate(84.75691, 130.962499)"><g><path d="M 10.949219 0 C 11.1875 0 11.359375 -0.152344 11.402344 -0.390625 L 11.597656 -1.878906 C 11.640625 -2.117188 11.511719 -2.269531 11.273438 -2.269531 L 4.644531 -2.269531 L 6.394531 -14.730469 C 6.414062 -14.96875 6.285156 -15.117188 6.046875 -15.117188 L 4.015625 -15.117188 C 3.78125 -15.117188 3.605469 -14.96875 3.585938 -14.730469 L 1.578125 -0.390625 C 1.535156 -0.152344 1.664062 0 1.902344 0 Z M 10.949219 0 "/></g></g></g><g fill="#000000" fill-opacity="1"><g transform="translate(95.662872, 130.962499)"><g><path d="M 3.476562 -14.730469 L 2.007812 -4.320312 C 1.640625 -1.726562 3.132812 0 5.722656 0 L 9.394531 0 C 11.988281 0 13.953125 -1.726562 14.320312 -4.320312 L 15.789062 -14.730469 C 15.808594 -14.96875 15.679688 -15.117188 15.441406 -15.117188 L 13.414062 -15.117188 C 13.175781 -15.117188 13 -14.96875 12.980469 -14.730469 L 11.339844 -3.132812 C 11.273438 -2.613281 10.886719 -2.269531 10.367188 -2.269531 L 5.398438 -2.269531 C 4.882812 -2.269531 4.578125 -2.613281 4.644531 -3.132812 L 6.285156 -14.730469 C 6.304688 -14.96875 6.175781 -15.117188 5.9375 -15.117188 L 3.910156 -15.117188 C 3.671875 -15.117188 3.5 -14.96875 3.476562 -14.730469 Z M 3.476562 -14.730469 "/></g></g></g><g fill="#000000" fill-opacity="1"><g transform="translate(110.240193, 130.962499)"><g><path d="M 7.839844 -15.117188 C 5.25 -15.117188 3.28125 -13.390625 2.914062 -10.796875 L 1.46875 -0.390625 C 1.425781 -0.152344 1.554688 0 1.792969 0 L 3.824219 0 C 4.058594 0 4.234375 -0.152344 4.277344 -0.390625 L 4.96875 -5.398438 L 11.878906 -5.398438 L 11.1875 -0.390625 C 11.144531 -0.152344 11.273438 0 11.511719 0 L 13.542969 0 C 13.777344 0 13.953125 -0.152344 13.996094 -0.390625 L 15.441406 -10.796875 C 15.808594 -13.390625 14.320312 -15.117188 11.726562 -15.117188 Z M 5.894531 -11.988281 C 5.960938 -12.503906 6.371094 -12.851562 6.890625 -12.851562 L 12.074219 -12.851562 C 12.589844 -12.851562 12.871094 -12.503906 12.808594 -11.988281 L 12.203125 -7.667969 L 5.292969 -7.667969 Z M 5.894531 -11.988281 "/></g></g></g><g fill="#000000" fill-opacity="1"><g transform="translate(125.033485, 130.962499)"><g><path d="M 3.824219 0 C 4.058594 0 4.234375 -0.152344 4.277344 -0.390625 L 5.894531 -11.988281 C 5.960938 -12.503906 6.371094 -12.851562 6.890625 -12.851562 L 11.855469 -12.851562 C 12.375 -12.851562 12.65625 -12.503906 12.589844 -11.988281 L 10.972656 -0.390625 C 10.929688 -0.152344 11.058594 0 11.296875 0 L 13.324219 0 C 13.5625 0 13.734375 -0.152344 13.777344 -0.390625 L 15.226562 -10.796875 C 15.59375 -13.390625 14.101562 -15.117188 11.511719 -15.117188 L 7.839844 -15.117188 C 5.25 -15.117188 3.28125 -13.390625 2.914062 -10.796875 L 1.46875 -0.390625 C 1.425781 -0.152344 1.554688 0 1.792969 0 Z M 3.824219 0 "/></g></g></g><g fill="#000000" fill-opacity="1"><g transform="translate(139.610805, 130.962499)"><g><path d="M 9.070312 0 C 11.664062 0 13.628906 -1.726562 13.996094 -4.320312 L 14.902344 -10.796875 C 15.269531 -13.390625 13.777344 -15.117188 11.1875 -15.117188 L 4.015625 -15.117188 C 3.78125 -15.117188 3.605469 -14.96875 3.585938 -14.730469 L 1.578125 -0.390625 C 1.535156 -0.152344 1.664062 0 1.902344 0 Z M 4.644531 -2.269531 L 6.132812 -12.851562 L 11.53125 -12.851562 C 12.050781 -12.851562 12.332031 -12.503906 12.265625 -11.988281 L 11.015625 -3.132812 C 10.949219 -2.613281 10.5625 -2.269531 10.042969 -2.269531 Z M 4.644531 -2.269531 "/></g></g></g><g fill="#000000" fill-opacity="1"><g transform="translate(153.648221, 130.962499)"><g><path d="M 7.839844 -15.117188 C 5.25 -15.117188 3.28125 -13.390625 2.914062 -10.796875 L 1.46875 -0.390625 C 1.425781 -0.152344 1.554688 0 1.792969 0 L 3.824219 0 C 4.058594 0 4.234375 -0.152344 4.277344 -0.390625 L 4.96875 -5.398438 L 11.878906 -5.398438 L 11.1875 -0.390625 C 11.144531 -0.152344 11.273438 0 11.511719 0 L 13.542969 0 C 13.777344 0 13.953125 -0.152344 13.996094 -0.390625 L 15.441406 -10.796875 C 15.808594 -13.390625 14.320312 -15.117188 11.726562 -15.117188 Z M 5.894531 -11.988281 C 5.960938 -12.503906 6.371094 -12.851562 6.890625 -12.851562 L 12.074219 -12.851562 C 12.589844 -12.851562 12.871094 -12.503906 12.808594 -11.988281 L 12.203125 -7.667969 L 5.292969 -7.667969 Z M 5.894531 -11.988281 "/></g></g></g><g fill="#000000" fill-opacity="1"><g transform="translate(168.44151, 130.962499)"><g/></g></g><g fill="#000000" fill-opacity="1"><g transform="translate(174.272356, 130.962499)"><g><path d="M 10.949219 0 C 11.1875 0 11.359375 -0.152344 11.402344 -0.390625 L 11.597656 -1.878906 C 11.640625 -2.117188 11.511719 -2.269531 11.273438 -2.269531 L 4.644531 -2.269531 L 6.394531 -14.730469 C 6.414062 -14.96875 6.285156 -15.117188 6.046875 -15.117188 L 4.015625 -15.117188 C 3.78125 -15.117188 3.605469 -14.96875 3.585938 -14.730469 L 1.578125 -0.390625 C 1.535156 -0.152344 1.664062 0 1.902344 0 Z M 10.949219 0 "/></g></g></g><g fill="#000000" fill-opacity="1"><g transform="translate(185.178322, 130.962499)"><g><path d="M 7.839844 -15.117188 C 5.25 -15.117188 3.28125 -13.390625 2.914062 -10.796875 L 1.46875 -0.390625 C 1.425781 -0.152344 1.554688 0 1.792969 0 L 3.824219 0 C 4.058594 0 4.234375 -0.152344 4.277344 -0.390625 L 4.96875 -5.398438 L 11.878906 -5.398438 L 11.1875 -0.390625 C 11.144531 -0.152344 11.273438 0 11.511719 0 L 13.542969 0 C 13.777344 0 13.953125 -0.152344 13.996094 -0.390625 L 15.441406 -10.796875 C 15.808594 -13.390625 14.320312 -15.117188 11.726562 -15.117188 Z M 5.894531 -11.988281 C 5.960938 -12.503906 6.371094 -12.851562 6.890625 -12.851562 L 12.074219 -12.851562 C 12.589844 -12.851562 12.871094 -12.503906 12.808594 -11.988281 L 12.203125 -7.667969 L 5.292969 -7.667969 Z M 5.894531 -11.988281 "/></g></g></g><g fill="#000000" fill-opacity="1"><g transform="translate(199.971616, 130.962499)"><g><path d="M 1.578125 -0.390625 C 1.535156 -0.152344 1.664062 0 1.902344 0 L 9.933594 0 C 11.878906 0 13.347656 -1.296875 13.628906 -3.238281 L 13.800781 -4.425781 C 13.953125 -5.570312 13.628906 -6.5 12.9375 -7.039062 L 12.9375 -7.105469 C 13.5625 -7.773438 13.953125 -8.683594 14.101562 -9.71875 L 14.253906 -10.796875 C 14.621094 -13.390625 13.132812 -15.117188 10.539062 -15.117188 L 4.015625 -15.117188 C 3.78125 -15.117188 3.605469 -14.96875 3.585938 -14.730469 Z M 5.398438 -7.667969 L 6.132812 -12.851562 L 10.886719 -12.851562 C 11.402344 -12.851562 11.683594 -12.503906 11.621094 -11.988281 L 11.144531 -8.53125 C 11.058594 -8.011719 10.667969 -7.667969 10.152344 -7.667969 Z M 4.644531 -2.269531 L 5.074219 -5.398438 L 10.519531 -5.398438 C 10.84375 -5.398438 11.035156 -5.183594 10.992188 -4.859375 L 10.691406 -2.808594 C 10.648438 -2.484375 10.410156 -2.269531 10.085938 -2.269531 Z M 4.644531 -2.269531 "/></g></g></g><g fill="#000000" fill-opacity="1"><g transform="translate(213.577113, 130.962499)"><g><path d="M 6.4375 -15.117188 C 4.492188 -15.117188 3.023438 -13.824219 2.742188 -11.878906 L 2.289062 -8.640625 C 2.03125 -6.695312 3.132812 -5.398438 5.074219 -5.398438 L 7.34375 -5.398438 L 6.652344 -0.390625 C 6.609375 -0.152344 6.738281 0 6.976562 0 L 9.007812 0 C 9.242188 0 9.417969 -0.152344 9.460938 -0.390625 L 10.386719 -7.128906 C 10.453125 -7.453125 10.257812 -7.667969 9.933594 -7.667969 L 5.507812 -7.667969 C 5.183594 -7.667969 4.988281 -7.882812 5.03125 -8.207031 L 5.617188 -12.3125 C 5.660156 -12.632812 5.917969 -12.851562 6.242188 -12.851562 L 12.222656 -12.851562 C 12.460938 -12.851562 12.632812 -13 12.65625 -13.238281 L 12.871094 -14.730469 C 12.894531 -14.96875 12.765625 -15.117188 12.527344 -15.117188 Z M 6.4375 -15.117188 "/></g></g></g><g fill="#000000" fill-opacity="1"><g transform="translate(121.175163, 146.874733)"><g><path d="M 3.296875 -6.1875 C 1.996094 -6.1875 0.800781 -5.433594 0.800781 -4.097656 C 0.800781 -3.199219 1.46875 -2.785156 2.574219 -2.503906 C 3.269531 -2.320312 3.550781 -2.039062 3.550781 -1.695312 C 3.550781 -1.203125 3.09375 -0.898438 2.53125 -0.898438 C 1.976562 -0.898438 1.539062 -1.195312 1.53125 -1.820312 L 0.140625 -1.820312 C 0.0195312 -0.511719 0.957031 0.125 2.375 0.125 C 3.78125 0.125 5.035156 -0.605469 5.035156 -1.960938 C 5.035156 -2.769531 4.535156 -3.324219 3.429688 -3.59375 C 2.585938 -3.796875 2.285156 -4.035156 2.285156 -4.402344 C 2.285156 -4.90625 2.65625 -5.167969 3.148438 -5.167969 C 3.726562 -5.167969 3.992188 -4.808594 3.957031 -4.246094 L 5.34375 -4.246094 C 5.40625 -5.34375 4.808594 -6.1875 3.296875 -6.1875 Z M 3.296875 -6.1875 "/></g></g></g><g fill="#000000" fill-opacity="1"><g transform="translate(129.190951, 146.874733)"><g><path d="M 4.0625 -6.1875 C 1.996094 -6.1875 0.5625 -4.675781 0.5625 -2.503906 C 0.5625 -1.019531 1.554688 0.125 3.347656 0.125 C 5.414062 0.125 6.847656 -1.398438 6.847656 -3.558594 C 6.847656 -5.046875 5.855469 -6.1875 4.0625 -6.1875 Z M 3.429688 -0.898438 C 2.515625 -0.898438 2.023438 -1.574219 2.023438 -2.539062 C 2.023438 -3.734375 2.644531 -5.167969 3.980469 -5.167969 C 4.894531 -5.167969 5.386719 -4.5 5.386719 -3.523438 C 5.386719 -2.328125 4.753906 -0.898438 3.429688 -0.898438 Z M 3.429688 -0.898438 "/></g></g></g><g fill="#000000" fill-opacity="1"><g transform="translate(138.797592, 146.874733)"><g><path d="M 2.503906 -4.992188 L 5.539062 -4.992188 L 5.730469 -6.066406 L 1.328125 -6.066406 L 0.253906 0 L 1.625 0 L 2.066406 -2.503906 L 4.816406 -2.503906 L 5.011719 -3.578125 L 2.257812 -3.578125 Z M 2.503906 -4.992188 "/></g></g></g><g fill="#000000" fill-opacity="1"><g transform="translate(146.681537, 146.874733)"><g><path d="M 6.039062 -4.992188 L 6.242188 -6.066406 L 0.828125 -6.066406 L 0.632812 -4.992188 L 2.65625 -4.992188 L 1.777344 0 L 3.148438 0 L 4.027344 -4.992188 Z M 6.039062 -4.992188 "/></g></g></g><g fill="#000000" fill-opacity="1"><g transform="translate(154.829156, 146.874733)"><g><path d="M 9.519531 -6.066406 L 8 -6.066406 L 6.179688 -1.125 L 6.179688 -5.976562 L 4.203125 -5.976562 L 2.488281 -1.167969 L 2.320312 -6.066406 L 0.886719 -6.066406 L 1.355469 0 L 3.199219 0 L 4.957031 -4.710938 L 5.054688 0 L 6.882812 0 Z M 9.519531 -6.066406 "/></g></g></g><g fill="#000000" fill-opacity="1"><g transform="translate(166.255177, 146.874733)"><g><path d="M 4.007812 -1.714844 L 4.253906 0 L 5.75 0 L 4.695312 -6.066406 L 2.890625 -6.066406 L -0.324219 0 L 1.152344 0 L 2.003906 -1.714844 Z M 3.839844 -2.796875 L 2.539062 -2.796875 L 3.550781 -4.816406 Z M 3.839844 -2.796875 "/></g></g></g><g fill="#000000" fill-opacity="1"><g transform="translate(174.974104, 146.874733)"><g><path d="M 5.898438 -4.703125 C 5.898438 -5.546875 5.292969 -5.933594 4.535156 -6.019531 C 4.226562 -6.054688 3.992188 -6.066406 3.628906 -6.066406 L 1.328125 -6.066406 L 0.253906 0 L 1.625 0 L 2.046875 -2.382812 L 2.601562 -2.382812 C 2.769531 -2.382812 2.917969 -2.382812 3.085938 -2.375 C 3.488281 -2.347656 3.675781 -1.996094 3.675781 -1.425781 C 3.683594 -0.625 3.699219 -0.308594 3.746094 0 L 5.238281 0 C 5.117188 -0.273438 5.054688 -0.640625 5.054688 -1.125 C 5.054688 -2.199219 4.878906 -2.699219 4.34375 -2.902344 C 5.316406 -3.148438 5.898438 -3.746094 5.898438 -4.703125 Z M 3.417969 -3.402344 C 3.289062 -3.394531 3.148438 -3.394531 2.953125 -3.394531 L 2.222656 -3.394531 L 2.503906 -4.992188 L 3.277344 -4.992188 C 3.472656 -4.992188 3.621094 -4.984375 3.746094 -4.976562 C 4.121094 -4.941406 4.394531 -4.78125 4.394531 -4.359375 C 4.394531 -3.691406 3.929688 -3.445312 3.417969 -3.402344 Z M 3.417969 -3.402344 "/></g></g></g><g fill="#000000" fill-opacity="1"><g transform="translate(183.36783, 146.874733)"><g><path d="M 2.503906 -4.992188 L 5.539062 -4.992188 L 5.730469 -6.066406 L 1.328125 -6.066406 L 0.253906 0 L 4.746094 0 L 4.941406 -1.082031 L 1.820312 -1.082031 L 2.066406 -2.503906 L 4.90625 -2.503906 L 5.097656 -3.578125 L 2.257812 -3.578125 Z M 2.503906 -4.992188 "/></g></g></g><path fill="#e16e36" d="M 203.308594 31.367188 C 203.890625 31.773438 204.421875 32.203125 204.890625 32.65625 C 204.933594 32.144531 204.929688 31.617188 204.882812 31.082031 C 205.238281 31.074219 205.566406 30.785156 205.632812 30.589844 C 205.738281 30.285156 205.28125 30.035156 204.648438 29.691406 C 204.546875 29.265625 204.414062 28.832031 204.246094 28.390625 C 204.574219 28.054688 205.53125 27.59375 203.605469 27.003906 C 203.578125 26.949219 203.550781 26.894531 203.519531 26.839844 C 203.390625 26.609375 203.21875 26.285156 203.101562 26.054688 C 203.597656 25.753906 204.339844 24.964844 202.5 24.621094 C 202.480469 24.621094 202.429688 24.511719 202.414062 24.503906 C 202.226562 24.039062 202.058594 23.566406 201.902344 23.09375 C 202.3125 23.132812 202.644531 23.015625 202.703125 22.773438 C 202.78125 22.476562 202.402344 22.105469 201.859375 21.949219 C 201.75 21.917969 201.644531 21.898438 201.542969 21.886719 C 201.433594 21.496094 201.339844 21.101562 201.25 20.710938 C 201.632812 20.734375 201.933594 20.613281 201.992188 20.386719 C 202.066406 20.085938 201.6875 19.714844 201.144531 19.558594 C 201.101562 19.546875 201.054688 19.535156 201.011719 19.527344 C 200.933594 19.089844 200.863281 18.652344 200.804688 18.21875 C 201.089844 18.210938 201.316406 18.09375 201.367188 17.894531 C 201.4375 17.609375 201.136719 17.277344 200.695312 17.148438 C 200.6875 17.148438 200.683594 17.148438 200.675781 17.144531 C 200.640625 16.808594 200.609375 16.46875 200.585938 16.136719 C 200.894531 16.171875 201.15625 16.066406 201.207031 15.863281 C 201.265625 15.621094 201.007812 15.335938 200.628906 15.222656 C 200.59375 15.214844 200.5625 15.207031 200.527344 15.203125 C 200.511719 14.808594 200.5 14.417969 200.492188 14.035156 C 200.75 14.054688 200.96875 13.960938 201.011719 13.789062 C 201.066406 13.570312 200.832031 13.316406 200.492188 13.21875 C 200.492188 13.214844 200.488281 13.214844 200.484375 13.214844 C 200.488281 12.820312 200.492188 12.4375 200.503906 12.058594 C 200.769531 12.09375 201 12.003906 201.042969 11.828125 C 201.09375 11.625 200.875 11.386719 200.558594 11.292969 C 200.550781 11.292969 200.542969 11.292969 200.535156 11.289062 C 200.554688 10.894531 200.578125 10.511719 200.609375 10.140625 C 200.832031 10.164062 201.023438 10.085938 201.0625 9.9375 C 201.105469 9.761719 200.925781 9.5625 200.664062 9.472656 C 200.695312 9.101562 200.734375 8.742188 200.773438 8.398438 C 200.972656 8.417969 201.140625 8.347656 201.175781 8.210938 C 201.214844 8.0625 201.070312 7.890625 200.847656 7.804688 C 201.132812 5.589844 201.480469 4.195312 201.480469 4.195312 C 199.28125 9.484375 198.578125 16.371094 199.285156 21.988281 C 202.839844 27.714844 203.261719 31.113281 203.308594 31.367188 " fill-opacity="1" fill-rule="nonzero"/><g clip-path="url(#fda42b7f8d)"><path fill="#e16e36" d="M 210.988281 43.964844 C 208.875 41.648438 207.195312 37.191406 207.195312 37.191406 C 206.867188 35.199219 205.148438 33.585938 202.675781 31.949219 C 202.195312 29.125 201.03125 25.585938 198.375 22.085938 C 192.53125 14.390625 193.898438 0.269531 193.898438 0.269531 C 193.40625 1.921875 193.0625 3.695312 192.859375 5.511719 C 192.46875 5.433594 192.148438 5.476562 192.113281 5.625 C 192.074219 5.789062 192.375 6.011719 192.796875 6.144531 C 192.761719 6.523438 192.730469 6.90625 192.707031 7.285156 C 192.367188 7.246094 192.105469 7.304688 192.074219 7.445312 C 192.035156 7.601562 192.292969 7.8125 192.671875 7.960938 C 192.652344 8.375 192.644531 8.789062 192.636719 9.203125 C 192.300781 9.179688 192.050781 9.246094 192.015625 9.390625 C 191.976562 9.5625 192.238281 9.785156 192.636719 9.953125 C 192.640625 10.394531 192.652344 10.839844 192.671875 11.277344 C 192.378906 11.277344 192.171875 11.347656 192.140625 11.484375 C 192.097656 11.652344 192.335938 11.871094 192.710938 12.042969 C 192.742188 12.5 192.777344 12.953125 192.824219 13.402344 C 192.574219 13.421875 192.402344 13.496094 192.371094 13.625 C 192.328125 13.796875 192.550781 14.019531 192.914062 14.203125 C 192.964844 14.640625 193.027344 15.078125 193.09375 15.503906 C 192.832031 15.53125 192.65625 15.617188 192.621094 15.757812 C 192.574219 15.960938 192.835938 16.222656 193.257812 16.4375 C 193.363281 16.988281 193.480469 17.53125 193.609375 18.058594 C 193.28125 18.074219 193.058594 18.160156 193.019531 18.316406 C 192.964844 18.539062 193.324219 18.84375 193.886719 19.101562 C 194.019531 19.558594 194.164062 20.003906 194.316406 20.4375 C 194.023438 20.460938 193.832031 20.546875 193.800781 20.6875 C 193.746094 20.917969 194.128906 21.238281 194.722656 21.496094 C 194.921875 21.972656 195.132812 22.425781 195.355469 22.855469 C 195.113281 22.90625 194.957031 23.003906 194.925781 23.144531 C 194.851562 23.445312 195.359375 23.859375 196.148438 24.207031 C 196.402344 24.632812 196.628906 25.050781 196.832031 25.464844 C 196.429688 25.488281 196.164062 25.59375 196.121094 25.777344 C 196.050781 26.082031 196.601562 26.511719 197.453125 26.871094 C 197.59375 27.238281 197.710938 27.597656 197.816406 27.945312 C 197.097656 27.863281 196.589844 27.945312 196.523438 28.1875 C 196.441406 28.503906 197.144531 29.007812 198.183594 29.417969 C 198.242188 29.710938 198.289062 29.992188 198.324219 30.257812 C 197.132812 30.203125 196.519531 30.601562 196.519531 30.601562 C 193.863281 29.875 191.371094 24.796875 191.371094 24.796875 C 191.371094 24.796875 190.5625 29.832031 192.171875 32.238281 C 193.28125 33.902344 195.183594 33.542969 195.183594 33.542969 C 194.070312 34.21875 193.03125 35.289062 192.128906 36.441406 C 190.988281 37.894531 186.664062 44.429688 184.433594 48.601562 C 184.296875 48.859375 184.167969 49.109375 184.046875 49.34375 C 183.953125 49.480469 183.871094 49.609375 183.847656 49.75 C 182.625 50.671875 181.589844 51.976562 179.628906 52.140625 C 177.730469 52.296875 174.800781 53.703125 174.039062 54.90625 C 173.464844 55.808594 170.324219 57.492188 167.628906 58.289062 C 164.675781 59.164062 159.933594 64.792969 137.84375 60.050781 C 136.332031 59.722656 135.828125 59.046875 132.640625 59.519531 C 131.214844 59.730469 125.804688 62.582031 124.382812 62.382812 C 122.21875 62.078125 122.171875 63.683594 120.097656 63.800781 C 120.167969 64.507812 121.363281 65.164062 123.089844 65.660156 C 124.296875 66.007812 128.140625 62.597656 129.550781 62.71875 C 129.550781 62.71875 129.753906 62.957031 129.480469 63.375 C 128.464844 64.917969 129.679688 70.179688 129.726562 72.015625 C 127.90625 74.476562 127.210938 74.621094 124.769531 73.84375 C 122.613281 73.363281 120.773438 74.191406 119.554688 76.050781 C 118.304688 77.953125 110.894531 83.464844 108.628906 83.539062 C 108.378906 83.546875 107.847656 82.441406 107.53125 82.675781 C 107.476562 82.714844 107.390625 82.871094 107.414062 83.296875 C 107.421875 83.464844 107.640625 84.328125 105.625 83.941406 C 103.765625 83.585938 103.757812 84.84375 99.757812 86.859375 C 98.269531 87.609375 103.539062 89.726562 107.117188 87.46875 C 107.835938 87.011719 108.8125 87.058594 109.449219 86.59375 C 121.386719 77.894531 126.105469 78.589844 126.175781 78.535156 C 126.3125 78.515625 127.257812 78.679688 128.660156 78.59375 C 127.683594 79.902344 125.957031 80.804688 123.023438 80.820312 C 120.890625 80.222656 119.011719 80.953125 117.703125 82.746094 C 116.363281 84.582031 108.695312 89.695312 106.429688 89.648438 C 106.175781 89.644531 105.703125 88.515625 105.375 88.730469 C 105.316406 88.769531 105.222656 88.917969 105.226562 89.347656 C 105.226562 89.515625 105.402344 90.390625 103.40625 89.894531 C 101.570312 89.441406 101.5 90.699219 97.40625 92.5 C 95.882812 93.171875 101.039062 95.566406 104.726562 93.496094 C 105.46875 93.078125 106.457031 93.199219 107.097656 92.746094 C 119.101562 84.234375 124.09375 86.15625 124.167969 86.101562 C 124.472656 86.074219 138.675781 87.835938 141.957031 83.347656 C 143.152344 81.710938 143.621094 80.972656 144.089844 80.710938 C 142.949219 79.648438 141.824219 78.261719 141.824219 78.261719 C 142.941406 79.554688 143.914062 80.234375 144.660156 80.589844 C 145.21875 80.625 146.039062 80.957031 147.8125 81.1875 C 173.835938 84.589844 179.675781 76.683594 181.582031 75.277344 C 180.515625 73.980469 179.429688 72.007812 179.429688 72.007812 C 180.601562 73.988281 181.738281 74.851562 182.503906 75.226562 C 185.214844 76.21875 187.859375 75.566406 190.28125 75.714844 C 187.460938 77.832031 184.777344 80.285156 184.476562 80.078125 C 183.484375 79.386719 183.523438 78.886719 183.34375 79.53125 C 183.335938 79.558594 183.335938 79.601562 183.339844 79.742188 C 183.460938 82.839844 180.957031 80.367188 179.441406 81.882812 C 177.128906 84.199219 176.609375 84.71875 177.078125 85.011719 C 178.3125 85.792969 182.160156 84.621094 183.117188 83.722656 C 184.183594 82.726562 184.664062 82.910156 185.382812 82.527344 C 190.152344 79.996094 192.875 78 195.09375 76.375 C 195.824219 76.410156 195.984375 77.222656 195.40625 77.585938 C 192.378906 79.085938 184.636719 85.320312 184.128906 84.964844 C 183.136719 84.273438 183.175781 84.023438 182.996094 84.667969 C 182.996094 84.667969 183 84.691406 182.992188 84.878906 C 182.886719 87.980469 180.609375 85.503906 179.09375 87.019531 C 176.78125 89.335938 176.257812 89.855469 176.726562 90.148438 C 177.960938 90.929688 181.8125 89.753906 182.769531 88.859375 C 183.832031 87.863281 184.3125 88.046875 185.035156 87.664062 C 198.320312 80.605469 201.535156 78.980469 202.265625 78.242188 C 202.726562 77.777344 203.117188 77.535156 202.699219 76.707031 C 202.308594 75.933594 201.378906 75.015625 200.734375 74.296875 C 201.753906 73.628906 202.351562 73.367188 202.613281 73.105469 C 203.074219 72.640625 203.464844 72.398438 203.046875 71.570312 C 202.089844 69.675781 198.09375 67.855469 196.644531 66.351562 C 198.484375 64.007812 198.660156 62.003906 197.898438 59.375 C 197.390625 57.636719 196.726562 55.75 196.632812 53.957031 C 197.449219 50.324219 198.375 46.984375 198.992188 45.210938 C 198.203125 44.878906 195.902344 42.839844 195.71875 42.457031 C 195.71875 42.457031 198.640625 44.800781 199.523438 44.964844 C 199.664062 44.949219 199.890625 44.910156 200.199219 44.886719 C 201.117188 44.8125 202.722656 44.863281 204.71875 45.996094 C 205.765625 46.589844 207.628906 47.296875 208.542969 47.632812 C 209.761719 48.078125 212.398438 47.492188 212.769531 46.691406 C 213.113281 45.957031 212.523438 45.640625 210.988281 43.964844 " fill-opacity="1" fill-rule="nonzero"/></g></svg>