<svg xmlns="http://www.w3.org/2000/svg" xmlns:xlink="http://www.w3.org/1999/xlink" width="500" zoomAndPan="magnify" viewBox="0 0 375 374.999991" height="500" preserveAspectRatio="xMidYMid meet" version="1.0"><defs><g/></defs><g fill="#000000" fill-opacity="1"><g transform="translate(107.000197, 192.984362)"><g><path d="M 12.546875 0 C 12.820312 0 13.015625 -0.171875 13.066406 -0.445312 L 13.289062 -2.152344 C 13.339844 -2.425781 13.191406 -2.597656 12.917969 -2.597656 L 5.320312 -2.597656 L 7.324219 -16.878906 C 7.351562 -17.148438 7.203125 -17.324219 6.929688 -17.324219 L 4.601562 -17.324219 C 4.332031 -17.324219 4.132812 -17.148438 4.109375 -16.878906 L 1.804688 -0.445312 C 1.757812 -0.171875 1.90625 0 2.179688 0 Z M 12.546875 0 "/></g></g></g><g fill="#000000" fill-opacity="1"><g transform="translate(119.496565, 192.984362)"><g><path d="M 3.984375 -16.878906 L 2.300781 -4.949219 C 1.878906 -1.980469 3.589844 0 6.558594 0 L 10.765625 0 C 13.734375 0 15.988281 -1.980469 16.40625 -4.949219 L 18.089844 -16.878906 C 18.113281 -17.148438 17.964844 -17.324219 17.695312 -17.324219 L 15.367188 -17.324219 C 15.097656 -17.324219 14.898438 -17.148438 14.875 -16.878906 L 12.992188 -3.589844 C 12.917969 -2.996094 12.472656 -2.597656 11.878906 -2.597656 L 6.1875 -2.597656 C 5.59375 -2.597656 5.246094 -2.996094 5.320312 -3.589844 L 7.203125 -16.878906 C 7.226562 -17.148438 7.078125 -17.324219 6.804688 -17.324219 L 4.480469 -17.324219 C 4.207031 -17.324219 4.007812 -17.148438 3.984375 -16.878906 Z M 3.984375 -16.878906 "/></g></g></g><g fill="#000000" fill-opacity="1"><g transform="translate(136.199682, 192.984362)"><g><path d="M 8.984375 -17.324219 C 6.011719 -17.324219 3.761719 -15.34375 3.339844 -12.375 L 1.683594 -0.445312 C 1.632812 -0.171875 1.78125 0 2.054688 0 L 4.378906 0 C 4.652344 0 4.851562 -0.171875 4.898438 -0.445312 L 5.691406 -6.1875 L 13.609375 -6.1875 L 12.820312 -0.445312 C 12.769531 -0.171875 12.917969 0 13.191406 0 L 15.515625 0 C 15.789062 0 15.988281 -0.171875 16.035156 -0.445312 L 17.695312 -12.375 C 18.113281 -15.34375 16.40625 -17.324219 13.4375 -17.324219 Z M 6.757812 -13.734375 C 6.832031 -14.328125 7.300781 -14.722656 7.894531 -14.722656 L 13.832031 -14.722656 C 14.425781 -14.722656 14.75 -14.328125 14.675781 -13.734375 L 13.980469 -8.785156 L 6.0625 -8.785156 Z M 6.757812 -13.734375 "/></g></g></g><g fill="#000000" fill-opacity="1"><g transform="translate(153.150265, 192.984362)"><g><path d="M 4.378906 0 C 4.652344 0 4.851562 -0.171875 4.898438 -0.445312 L 6.757812 -13.734375 C 6.832031 -14.328125 7.300781 -14.722656 7.894531 -14.722656 L 13.585938 -14.722656 C 14.179688 -14.722656 14.5 -14.328125 14.425781 -13.734375 L 12.570312 -0.445312 C 12.523438 -0.171875 12.671875 0 12.941406 0 L 15.269531 0 C 15.542969 0 15.738281 -0.171875 15.789062 -0.445312 L 17.445312 -12.375 C 17.867188 -15.34375 16.160156 -17.324219 13.191406 -17.324219 L 8.984375 -17.324219 C 6.011719 -17.324219 3.761719 -15.34375 3.339844 -12.375 L 1.683594 -0.445312 C 1.632812 -0.171875 1.78125 0 2.054688 0 Z M 4.378906 0 "/></g></g></g><g fill="#000000" fill-opacity="1"><g transform="translate(169.853382, 192.984362)"><g><path d="M 10.394531 0 C 13.363281 0 15.617188 -1.980469 16.035156 -4.949219 L 17.074219 -12.375 C 17.496094 -15.34375 15.789062 -17.324219 12.820312 -17.324219 L 4.601562 -17.324219 C 4.332031 -17.324219 4.132812 -17.148438 4.109375 -16.878906 L 1.804688 -0.445312 C 1.757812 -0.171875 1.90625 0 2.179688 0 Z M 5.320312 -2.597656 L 7.027344 -14.722656 L 13.214844 -14.722656 C 13.808594 -14.722656 14.128906 -14.328125 14.054688 -13.734375 L 12.621094 -3.589844 C 12.546875 -2.996094 12.101562 -2.597656 11.507812 -2.597656 Z M 5.320312 -2.597656 "/></g></g></g><g fill="#000000" fill-opacity="1"><g transform="translate(185.937861, 192.984362)"><g><path d="M 8.984375 -17.324219 C 6.011719 -17.324219 3.761719 -15.34375 3.339844 -12.375 L 1.683594 -0.445312 C 1.632812 -0.171875 1.78125 0 2.054688 0 L 4.378906 0 C 4.652344 0 4.851562 -0.171875 4.898438 -0.445312 L 5.691406 -6.1875 L 13.609375 -6.1875 L 12.820312 -0.445312 C 12.769531 -0.171875 12.917969 0 13.191406 0 L 15.515625 0 C 15.789062 0 15.988281 -0.171875 16.035156 -0.445312 L 17.695312 -12.375 C 18.113281 -15.34375 16.40625 -17.324219 13.4375 -17.324219 Z M 6.757812 -13.734375 C 6.832031 -14.328125 7.300781 -14.722656 7.894531 -14.722656 L 13.832031 -14.722656 C 14.425781 -14.722656 14.75 -14.328125 14.675781 -13.734375 L 13.980469 -8.785156 L 6.0625 -8.785156 Z M 6.757812 -13.734375 "/></g></g></g><g fill="#000000" fill-opacity="1"><g transform="translate(202.88844, 192.984362)"><g/></g></g><g fill="#000000" fill-opacity="1"><g transform="translate(209.569593, 192.984362)"><g><path d="M 12.546875 0 C 12.820312 0 13.015625 -0.171875 13.066406 -0.445312 L 13.289062 -2.152344 C 13.339844 -2.425781 13.191406 -2.597656 12.917969 -2.597656 L 5.320312 -2.597656 L 7.324219 -16.878906 C 7.351562 -17.148438 7.203125 -17.324219 6.929688 -17.324219 L 4.601562 -17.324219 C 4.332031 -17.324219 4.132812 -17.148438 4.109375 -16.878906 L 1.804688 -0.445312 C 1.757812 -0.171875 1.90625 0 2.179688 0 Z M 12.546875 0 "/></g></g></g><g fill="#000000" fill-opacity="1"><g transform="translate(222.065965, 192.984362)"><g><path d="M 8.984375 -17.324219 C 6.011719 -17.324219 3.761719 -15.34375 3.339844 -12.375 L 1.683594 -0.445312 C 1.632812 -0.171875 1.78125 0 2.054688 0 L 4.378906 0 C 4.652344 0 4.851562 -0.171875 4.898438 -0.445312 L 5.691406 -6.1875 L 13.609375 -6.1875 L 12.820312 -0.445312 C 12.769531 -0.171875 12.917969 0 13.191406 0 L 15.515625 0 C 15.789062 0 15.988281 -0.171875 16.035156 -0.445312 L 17.695312 -12.375 C 18.113281 -15.34375 16.40625 -17.324219 13.4375 -17.324219 Z M 6.757812 -13.734375 C 6.832031 -14.328125 7.300781 -14.722656 7.894531 -14.722656 L 13.832031 -14.722656 C 14.425781 -14.722656 14.75 -14.328125 14.675781 -13.734375 L 13.980469 -8.785156 L 6.0625 -8.785156 Z M 6.757812 -13.734375 "/></g></g></g><g fill="#000000" fill-opacity="1"><g transform="translate(239.016551, 192.984362)"><g><path d="M 1.804688 -0.445312 C 1.757812 -0.171875 1.90625 0 2.179688 0 L 11.382812 0 C 13.609375 0 15.292969 -1.484375 15.617188 -3.710938 L 15.8125 -5.074219 C 15.988281 -6.386719 15.617188 -7.449219 14.824219 -8.066406 L 14.824219 -8.140625 C 15.542969 -8.910156 15.988281 -9.949219 16.160156 -11.136719 L 16.332031 -12.375 C 16.753906 -15.34375 15.046875 -17.324219 12.078125 -17.324219 L 4.601562 -17.324219 C 4.332031 -17.324219 4.132812 -17.148438 4.109375 -16.878906 Z M 6.1875 -8.785156 L 7.027344 -14.722656 L 12.472656 -14.722656 C 13.066406 -14.722656 13.386719 -14.328125 13.3125 -13.734375 L 12.769531 -9.773438 C 12.671875 -9.179688 12.226562 -8.785156 11.632812 -8.785156 Z M 5.320312 -2.597656 L 5.816406 -6.1875 L 12.050781 -6.1875 C 12.421875 -6.1875 12.644531 -5.9375 12.597656 -5.566406 L 12.25 -3.21875 C 12.199219 -2.847656 11.929688 -2.597656 11.558594 -2.597656 Z M 5.320312 -2.597656 "/></g></g></g><g fill="#000000" fill-opacity="1"><g transform="translate(254.606123, 192.984362)"><g><path d="M 7.375 -17.324219 C 5.148438 -17.324219 3.464844 -15.839844 3.144531 -13.609375 L 2.625 -9.898438 C 2.328125 -7.671875 3.589844 -6.1875 5.816406 -6.1875 L 8.414062 -6.1875 L 7.621094 -0.445312 C 7.574219 -0.171875 7.722656 0 7.992188 0 L 10.320312 0 C 10.589844 0 10.789062 -0.171875 10.839844 -0.445312 L 11.902344 -8.167969 C 11.976562 -8.539062 11.753906 -8.785156 11.382812 -8.785156 L 6.308594 -8.785156 C 5.9375 -8.785156 5.714844 -9.03125 5.765625 -9.402344 L 6.433594 -14.105469 C 6.484375 -14.476562 6.78125 -14.722656 7.152344 -14.722656 L 14.007812 -14.722656 C 14.277344 -14.722656 14.476562 -14.898438 14.5 -15.171875 L 14.75 -16.878906 C 14.773438 -17.148438 14.625 -17.324219 14.351562 -17.324219 Z M 7.375 -17.324219 "/></g></g></g></svg>